#!OML:ASF H:\Dans Jumps\Project 1\Capture day 1\Session 1\subject.ASF
:FULLY-SPECIFIED
:DEGREES
614
root 0.480721 17.5844 6.99503 7.33788 -3.05049 -1.7063
lowerback -4.49048 -0.76053 0.129249
upperback 0.476445 -1.06485 1.43285
thorax 3.03319 -0.540329 1.3268
lowerneck -4.207 -7.56223 -4.2911
upperneck 2.18476 -9.92561 2.30135
head 1.74708 -4.94779 1.14144
rclavicle 3.21783e-015 1.31198e-014
rhumerus -26.6466 -18.3105 -78.7064
rradius 22.0909
rwrist 38.4347
rhand -18.7556 -26.4535
rfingers 7.12502
rthumb 7.54108 -56.299
lclavicle 3.21783e-015 1.31198e-014
lhumerus -29.4958 3.24911 87.5737
lradius 19.23
lwrist 5.10794
lhand -26.582 -5.62273
lfingers 7.12502
lthumb -0.0163998 24.357
rfemur -12.745 -1.93725 20.0365
rtibia 23.6692
rfoot -16.519 1.74797
rtoes 12.8028
lfemur -10.4148 9.60739 -18.0928
ltibia 20.4888
lfoot -13.1865 7.7448
ltoes -0.495245
615
root 0.4806 17.5844 6.99459 7.33789 -3.04684 -1.70983
lowerback -4.49542 -0.74985 0.150844
upperback 0.470691 -1.05191 1.43771
thorax 3.02944 -0.533538 1.32058
lowerneck -4.32774 -7.35712 -4.16471
upperneck 2.23715 -9.6484 2.13633
head 1.75869 -4.81099 1.07423
rclavicle 3.73964e-015 1.51076e-014
rhumerus -26.6136 -18.34 -78.6865
rradius 22.1139
rwrist 38.4141
rhand -18.7585 -26.4457
rfingers 7.12502
rthumb 7.53827 -56.2913
lclavicle 3.73964e-015 1.51076e-014
lhumerus -29.4777 3.14165 87.6315
lradius 19.2072
lwrist 5.13569
lhand -26.6342 -5.90867
lfingers 7.12502
lthumb -0.066742 24.0711
rfemur -12.747 -1.94371 20.0418
rtibia 23.671
rfoot -16.5195 1.75024
rtoes 12.8083
lfemur -10.4147 9.60624 -18.0884
ltibia 20.4846
lfoot -13.1832 7.74498
ltoes -0.51359
616
root 0.480514 17.5844 6.99442 7.33747 -3.04402 -1.71248
lowerback -4.50295 -0.738384 0.173483
upperback 0.465387 -1.03801 1.4427
thorax 3.02758 -0.526262 1.31393
lowerneck -4.45668 -7.14856 -4.05111
upperneck 2.3051 -9.36625 1.98239
head 1.77899 -4.67174 1.01226
rclavicle -8.69683e-016 -9.34288e-015
rhumerus -26.5813 -18.3741 -78.6643
rradius 22.1339
rwrist 38.399
rhand -18.7662 -26.4264
rfingers 7.12502
rthumb 7.53079 -56.2724
lclavicle -8.69683e-016 -9.34288e-015
lhumerus -29.4581 3.02717 87.6964
lradius 19.2055
lwrist 5.19812
lhand -26.6461 -6.00345
lfingers 7.12502
lthumb -0.0782611 23.9763
rfemur -12.7469 -1.95233 20.0454
rtibia 23.6708
rfoot -16.5192 1.75597
rtoes 12.8137
lfemur -10.4137 9.60588 -18.0851
ltibia 20.4827
lfoot -13.1824 7.74517
ltoes -0.526114
617
root 0.480339 17.5844 6.99432 7.33674 -3.04305 -1.71607
lowerback -4.51178 -0.726216 0.197014
upperback 0.462274 -1.02329 1.44801
thorax 3.02869 -0.518571 1.30716
lowerneck -4.60269 -6.93656 -3.94256
upperneck 2.39024 -9.079 1.83392
head 1.80927 -4.52999 0.952216
rclavicle 1.86361e-015 3.37934e-015
rhumerus -26.547 -18.4021 -78.6458
rradius 22.155
rwrist 38.3806
rhand -18.7766 -26.4081
rfingers 7.12502
rthumb 7.52074 -56.2544
lclavicle 1.86361e-015 3.37934e-015
lhumerus -29.4354 2.92037 87.7598
lradius 19.2086
lwrist 5.26024
lhand -26.6382 -6.02138
lfingers 7.12502
lthumb -0.0706855 23.9583
rfemur -12.7466 -1.95533 20.0502
rtibia 23.6701
rfoot -16.5175 1.75917
rtoes 12.8193
lfemur -10.4117 9.60658 -18.0802
ltibia 20.4806
lfoot -13.1818 7.74499
ltoes -0.529714
618
root 0.480113 17.5844 6.9944 7.33441 -3.04362 -1.71606
lowerback -4.52198 -0.714569 0.217646
upperback 0.461203 -1.0091 1.45186
thorax 3.03273 -0.511194 1.30043
lowerneck -4.75665 -6.72085 -3.84376
upperneck 2.48691 -8.78643 1.69417
head 1.84648 -4.38564 0.896407
rclavicle 8.4235e-015 -6.75868e-015
rhumerus -26.5128 -18.4238 -78.631
rradius 22.1763
rwrist 38.3617
rhand -18.7867 -26.388
rfingers 7.12502
rthumb 7.51101 -56.2347
lclavicle 8.4235e-015 -6.75868e-015
lhumerus -29.4132 2.82292 87.8193
lradius 19.2129
lwrist 5.31396
lhand -26.6251 -6.02881
lfingers 7.12502
lthumb -0.0580157 23.9509
rfemur -12.746 -1.95701 20.0508
rtibia 23.6726
rfoot -16.5179 1.76224
rtoes 12.8229
lfemur -10.4047 9.60861 -18.079
ltibia 20.4734
lfoot -13.1791 7.74408
ltoes -0.535381
619
root 0.479888 17.5845 6.99461 7.331 -3.04501 -1.70508
lowerback -4.53511 -0.704025 0.227996
upperback 0.463022 -0.995779 1.45193
thorax 3.04152 -0.5044 1.29548
lowerneck -4.92088 -6.51263 -3.77289
upperneck 2.5867 -8.50245 1.57255
head 1.89006 -4.24557 0.850368
rclavicle 1.20016e-014 -8.94531e-015
rhumerus -26.481 -18.4338 -78.6217
rradius 22.2028
rwrist 38.3325
rhand -18.7905 -26.3763
rfingers 7.12502
rthumb 7.50733 -56.2231
lclavicle 1.20016e-014 -8.94531e-015
lhumerus -29.3921 2.73688 87.8733
lradius 19.2221
lwrist 5.35417
lhand -26.6078 -6.02186
lfingers 7.12502
lthumb -0.0412448 23.9579
rfemur -12.7454 -1.9615 20.0389
rtibia 23.6782
rfoot -16.5204 1.76915
rtoes 12.8295
lfemur -10.394 9.60875 -18.0899
ltibia 20.4615
lfoot -13.1757 7.74399
ltoes -0.539695
620
root 0.47964 17.5844 6.99482 7.32717 -3.04656 -1.68773
lowerback -4.54886 -0.694459 0.231463
upperback 0.466102 -0.983348 1.45007
thorax 3.05207 -0.498152 1.29233
lowerneck -5.1034 -6.30558 -3.71736
upperneck 2.69782 -8.21871 1.46002
head 1.94262 -4.10569 0.809189
rclavicle -2.63887e-014 1.90833e-014
rhumerus -26.454 -18.4257 -78.6181
rradius 22.2352
rwrist 38.2861
rhand -18.788 -26.3794
rfingers 7.12502
rthumb 7.50979 -56.2261
lclavicle -2.63887e-014 1.90833e-014
lhumerus -29.3707 2.6575 87.9236
lradius 19.234
lwrist 5.38738
lhand -26.5855 -5.99587
lfingers 7.12502
lthumb -0.0197528 23.9839
rfemur -12.7462 -1.96731 20.02
rtibia 23.687
rfoot -16.5252 1.77591
rtoes 12.8274
lfemur -10.3805 9.60833 -18.1078
ltibia 20.4442
lfoot -13.1683 7.74402
ltoes -0.553438
